{
	"asset":{
		"version":"2.0",
		"generator":"Houdini GLTF 2.0 Exporter"
	},
	"accessors":[
		{
			"bufferView":0,
			"componentType":5123,
			"count":2634,
			"type":"SCALAR",
			"min":[0
			],
			"max":[838
			]
		},
		{
			"bufferView":1,
			"componentType":5126,
			"count":839,
			"type":"VEC3",
			"min":[-125,-56.4645348,-266.771912
			],
			"max":[125,87.1287918,161.341751
			]
		},
		{
			"bufferView":2,
			"componentType":5126,
			"count":839,
			"type":"VEC4",
			"min":[1,1,1,1
			],
			"max":[1,1,1,1
			]
		},
		{
			"bufferView":3,
			"componentType":5126,
			"count":839,
			"type":"VEC3",
			"min":[-1,-1,-1
			],
			"max":[1,1,1
			]
		},
		{
			"bufferView":4,
			"componentType":5126,
			"count":839,
			"type":"VEC2",
			"min":[0,0
			],
			"max":[1.16666663,1
			]
		},
		{
			"bufferView":5,
			"componentType":5126,
			"count":839,
			"type":"SCALAR",
			"min":[4.3210001
			],
			"max":[4.3210001
			]
		}
	],
	"buffers":[
		{
			"uri":"adder_mk1_data.bin",
			"byteLength":48896,
			"name":"main_buffer"
		}
	],
	"bufferViews":[
		{
			"buffer":0,
			"byteLength":5268,
			"target":34963
		},
		{
			"buffer":0,
			"byteOffset":5268,
			"byteLength":10068,
			"target":34962
		},
		{
			"buffer":0,
			"byteOffset":15336,
			"byteLength":13424,
			"target":34962
		},
		{
			"buffer":0,
			"byteOffset":28760,
			"byteLength":10068,
			"target":34962
		},
		{
			"buffer":0,
			"byteOffset":38828,
			"byteLength":6712,
			"target":34962
		},
		{
			"buffer":0,
			"byteOffset":45540,
			"byteLength":3356,
			"target":34962
		}
	],
	"nodes":[
		{
			"name":"adder_mk1",
			"mesh":0
		}
	],
	"meshes":[
		{
			"primitives":[
				{
					"attributes":{
						"_mass":5,
						"TEXCOORD_0":4,
						"NORMAL":3,
						"_RGBA":2,
						"POSITION":1
					},
					"indices":0,
					"material":0
				}
			],
			"name":"pighead"
		}
	],
	"materials":[
		{
			"name":"checkerboard",
			"pbrMetallicRoughness":{
				"baseColorFactor":[0.200000003,0.200000003,0.200000003,1
				],
				"metallicFactor":0,
				"roughnessFactor":0.300000012,
				"baseColorTexture":{
					"index":0
				}
			}
		}
	],
	"scenes":[
		{
			"nodes":[0
			]
		}
	],
	"textures":[
		{
			"source":0
		}
	],
	"images":[
		{
			"uri":"checkerboard.png",
			"mimeType":"image/png"
		}
	],
	"scene":0
}
