{
	"asset":{
		"version":"2.0",
		"generator":"Houdini GLTF 2.0 Exporter"
	},
	"accessors":[
		{
			"bufferView":0,
			"componentType":5123,
			"count":2616,
			"type":"SCALAR",
			"min":[0
			],
			"max":[833
			]
		},
		{
			"bufferView":1,
			"componentType":5126,
			"count":834,
			"type":"VEC3",
			"min":[-1.61341751,-0.56464535,-1.25
			],
			"max":[1.5,0.871287942,1.25
			]
		},
		{
			"bufferView":2,
			"componentType":5126,
			"count":834,
			"type":"VEC4",
			"min":[1,1,1,1
			],
			"max":[1,1,1,1
			]
		},
		{
			"bufferView":3,
			"componentType":5126,
			"count":834,
			"type":"VEC3",
			"min":[-1,-1,-1
			],
			"max":[1,1,1
			]
		},
		{
			"bufferView":4,
			"componentType":5126,
			"count":834,
			"type":"VEC2",
			"min":[0,0
			],
			"max":[1.16666663,1
			]
		},
		{
			"bufferView":5,
			"componentType":5126,
			"count":834,
			"type":"SCALAR",
			"min":[4.3210001
			],
			"max":[4.3210001
			]
		}
	],
	"buffers":[
		{
			"uri":"adder_mk1_data.bin",
			"byteLength":48600,
			"name":"main_buffer"
		}
	],
	"bufferViews":[
		{
			"buffer":0,
			"byteLength":5232,
			"target":34963
		},
		{
			"buffer":0,
			"byteOffset":5232,
			"byteLength":10008,
			"target":34962
		},
		{
			"buffer":0,
			"byteOffset":15240,
			"byteLength":13344,
			"target":34962
		},
		{
			"buffer":0,
			"byteOffset":28584,
			"byteLength":10008,
			"target":34962
		},
		{
			"buffer":0,
			"byteOffset":38592,
			"byteLength":6672,
			"target":34962
		},
		{
			"buffer":0,
			"byteOffset":45264,
			"byteLength":3336,
			"target":34962
		}
	],
	"nodes":[
		{
			"name":"adder_mk1",
			"mesh":0
		}
	],
	"meshes":[
		{
			"primitives":[
				{
					"attributes":{
						"_mass":5,
						"TEXCOORD_0":4,
						"NORMAL":3,
						"_RGBA":2,
						"POSITION":1
					},
					"indices":0,
					"material":0
				}
			],
			"name":"pighead"
		}
	],
	"materials":[
		{
			"name":"checkerboard",
			"pbrMetallicRoughness":{
				"baseColorFactor":[0.200000003,0.200000003,0.200000003,1
				],
				"metallicFactor":0,
				"roughnessFactor":0.300000012,
				"baseColorTexture":{
					"index":0
				}
			}
		}
	],
	"scenes":[
		{
			"nodes":[0
			]
		}
	],
	"textures":[
		{
			"source":0
		}
	],
	"images":[
		{
			"uri":"checkerboard.png",
			"mimeType":"image/png"
		}
	],
	"scene":0
}
