{
	"asset":{
		"version":"2.0",
		"generator":"Houdini GLTF 2.0 Exporter"
	},
	"accessors":[
		{
			"bufferView":0,
			"componentType":5123,
			"count":240,
			"type":"SCALAR",
			"min":[0
			],
			"max":[101
			]
		},
		{
			"bufferView":1,
			"componentType":5126,
			"count":102,
			"type":"VEC3",
			"min":[-137.75,-137.75,124.75
			],
			"max":[137.75,137.75,125.25
			]
		},
		{
			"bufferView":2,
			"componentType":5126,
			"count":102,
			"type":"VEC4",
			"min":[0.5,0.5,0.5,0.5
			],
			"max":[1,1,1,1
			]
		},
		{
			"bufferView":3,
			"componentType":5126,
			"count":102,
			"type":"VEC3",
			"min":[-0.816498041,-0.816498578,-1
			],
			"max":[0.816498041,0.816498578,1
			]
		},
		{
			"bufferView":4,
			"componentType":5126,
			"count":102,
			"type":"VEC2",
			"min":[-0.0500000119,0
			],
			"max":[1,1
			]
		},
		{
			"bufferView":5,
			"componentType":5126,
			"count":102,
			"type":"SCALAR",
			"min":[4.3210001
			],
			"max":[4.3210001
			]
		}
	],
	"buffers":[
		{
			"uri":"brackets_data.bin",
			"byteLength":5784,
			"name":"main_buffer"
		}
	],
	"bufferViews":[
		{
			"buffer":0,
			"byteLength":480,
			"target":34963
		},
		{
			"buffer":0,
			"byteOffset":480,
			"byteLength":1224,
			"target":34962
		},
		{
			"buffer":0,
			"byteOffset":1704,
			"byteLength":1632,
			"target":34962
		},
		{
			"buffer":0,
			"byteOffset":3336,
			"byteLength":1224,
			"target":34962
		},
		{
			"buffer":0,
			"byteOffset":4560,
			"byteLength":816,
			"target":34962
		},
		{
			"buffer":0,
			"byteOffset":5376,
			"byteLength":408,
			"target":34962
		}
	],
	"nodes":[
		{
			"name":"brackets",
			"mesh":0
		}
	],
	"meshes":[
		{
			"primitives":[
				{
					"attributes":{
						"_mass":5,
						"TEXCOORD_0":4,
						"NORMAL":3,
						"_RGBA":2,
						"POSITION":1
					},
					"indices":0,
					"material":0
				}
			],
			"name":"pighead"
		}
	],
	"materials":[
		{
			"name":"brackets",
			"pbrMetallicRoughness":{
				"baseColorFactor":[0.200000003,0.200000003,0.200000003,1
				],
				"metallicFactor":0,
				"roughnessFactor":0.300000012
			}
		}
	],
	"scenes":[
		{
			"nodes":[0
			]
		}
	],
	"scene":0
}
