{
	"asset":{
		"version":"2.0",
		"generator":"Houdini GLTF 2.0 Exporter"
	},
	"accessors":[
		{
			"bufferView":0,
			"componentType":5121,
			"count":6,
			"type":"SCALAR",
			"min":[0
			],
			"max":[3
			]
		},
		{
			"bufferView":1,
			"componentType":5126,
			"count":4,
			"type":"VEC3",
			"min":[-0.0282000005,-0.00639999751,0
			],
			"max":[0.0275999978,0.0782999992,0
			]
		},
		{
			"bufferView":2,
			"componentType":5126,
			"count":4,
			"type":"VEC4",
			"min":[1,1,1,1
			],
			"max":[1,1,1,1
			]
		},
		{
			"bufferView":3,
			"componentType":5126,
			"count":4,
			"type":"VEC3",
			"min":[0,0,1
			],
			"max":[0,0,1
			]
		},
		{
			"bufferView":4,
			"componentType":5126,
			"count":4,
			"type":"VEC2",
			"min":[0.286599994,0.68143332
			],
			"max":[0.342399985,0.723783374
			]
		},
		{
			"bufferView":5,
			"componentType":5125,
			"count":4,
			"type":"SCALAR",
			"min":[30
			],
			"max":[30
			]
		},
		{
			"bufferView":6,
			"componentType":5126,
			"count":4,
			"type":"SCALAR",
			"min":[4.3210001
			],
			"max":[4.3210001
			]
		}
	],
	"buffers":[
		{
			"uri":"fnt_S_data.bin",
			"byteLength":232,
			"name":"main_buffer"
		}
	],
	"bufferViews":[
		{
			"buffer":0,
			"byteLength":6,
			"target":34963
		},
		{
			"buffer":0,
			"byteOffset":8,
			"byteLength":48,
			"target":34962
		},
		{
			"buffer":0,
			"byteOffset":56,
			"byteLength":64,
			"target":34962
		},
		{
			"buffer":0,
			"byteOffset":120,
			"byteLength":48,
			"target":34962
		},
		{
			"buffer":0,
			"byteOffset":168,
			"byteLength":32,
			"target":34962
		},
		{
			"buffer":0,
			"byteOffset":200,
			"byteLength":16,
			"target":34962
		},
		{
			"buffer":0,
			"byteOffset":216,
			"byteLength":16,
			"target":34962
		}
	],
	"nodes":[
		{
			"name":"fonts",
			"mesh":0
		}
	],
	"meshes":[
		{
			"primitives":[
				{
					"attributes":{
						"_mass":6,
						"TEXCOORD_0":4,
						"NORMAL":3,
						"_class":5,
						"_RGBA":2,
						"POSITION":1
					},
					"indices":0,
					"material":0
				}
			],
			"name":"pighead"
		}
	],
	"materials":[
		{
			"name":"fontbmpext",
			"pbrMetallicRoughness":{
				"baseColorFactor":[0.200000003,0.200000003,0.200000003,1
				],
				"metallicFactor":0,
				"roughnessFactor":0.300000012,
				"baseColorTexture":{
					"index":0
				}
			}
		}
	],
	"scenes":[
		{
			"nodes":[0
			]
		}
	],
	"textures":[
		{
			"source":0
		}
	],
	"images":[
		{
			"uri":"FONTS.png",
			"mimeType":"image/png"
		}
	],
	"scene":0
}
