{
	"asset":{
		"version":"2.0",
		"generator":"Houdini GLTF 2.0 Exporter"
	},
	"accessors":[
		{
			"bufferView":0,
			"componentType":5123,
			"count":17304,
			"type":"SCALAR",
			"min":[0
			],
			"max":[3301
			]
		},
		{
			"bufferView":1,
			"componentType":5126,
			"count":3302,
			"type":"VEC3",
			"min":[-0.801870108,-0.968705058,-0.771075189
			],
			"max":[0.666503608,0.679344773,0.91412288
			]
		},
		{
			"bufferView":2,
			"componentType":5126,
			"count":3302,
			"type":"VEC4",
			"min":[1,1,1,1
			],
			"max":[1,1,1,1
			]
		},
		{
			"bufferView":3,
			"componentType":5126,
			"count":3302,
			"type":"VEC3",
			"min":[-0.989921033,-0.990473032,-0.999641299
			],
			"max":[0.999983847,0.999755502,0.998437881
			]
		},
		{
			"bufferView":4,
			"componentType":5126,
			"count":3302,
			"type":"VEC2",
			"min":[0.00999999978,-0.99000001
			],
			"max":[0.975960791,-0.00999999046
			]
		},
		{
			"bufferView":5,
			"componentType":5126,
			"count":3302,
			"type":"SCALAR",
			"min":[4.3210001
			],
			"max":[4.3210001
			]
		}
	],
	"buffers":[
		{
			"uri":"pighead_data.bin",
			"byteLength":206312,
			"name":"main_buffer"
		}
	],
	"bufferViews":[
		{
			"buffer":0,
			"byteLength":34608,
			"target":34963
		},
		{
			"buffer":0,
			"byteOffset":34608,
			"byteLength":39624,
			"target":34962
		},
		{
			"buffer":0,
			"byteOffset":74232,
			"byteLength":52832,
			"target":34962
		},
		{
			"buffer":0,
			"byteOffset":127064,
			"byteLength":39624,
			"target":34962
		},
		{
			"buffer":0,
			"byteOffset":166688,
			"byteLength":26416,
			"target":34962
		},
		{
			"buffer":0,
			"byteOffset":193104,
			"byteLength":13208,
			"target":34962
		}
	],
	"nodes":[
		{
			"name":"pighead",
			"mesh":0
		}
	],
	"meshes":[
		{
			"primitives":[
				{
					"attributes":{
						"_mass":5,
						"TEXCOORD_0":4,
						"NORMAL":3,
						"_RGBA":2,
						"POSITION":1
					},
					"indices":0,
					"material":0
				}
			],
			"name":"pighead"
		}
	],
	"materials":[
		{
			"name":"pighead",
			"pbrMetallicRoughness":{
				"baseColorFactor":[0.200000003,0.200000003,0.200000003,1
				],
				"metallicFactor":0,
				"roughnessFactor":0.300000012,
				"baseColorTexture":{
					"index":0
				},
				"metallicRoughnessTexture":{
					"index":1
				}
			}
		}
	],
	"scenes":[
		{
			"nodes":[0
			]
		}
	],
	"textures":[
		{
			"source":0
		},
		{
			"source":1
		}
	],
	"images":[
		{
			"uri":"testgeometry_pighead_lowres.png",
			"mimeType":"image/png"
		},
		{
			"uri":"testgeometry_pighead_lowresspec.png",
			"mimeType":"image/png"
		}
	],
	"scene":0
}
