{
	"asset":{
		"version":"2.0",
		"generator":"Houdini GLTF 2.0 Exporter"
	},
	"accessors":[
		{
			"bufferView":0,
			"componentType":5125,
			"count":277104,
			"type":"SCALAR",
			"min":[0
			],
			"max":[47797
			]
		},
		{
			"bufferView":1,
			"componentType":5126,
			"count":47798,
			"type":"VEC3",
			"min":[-0.794230938,-0.959302545,-0.753830075
			],
			"max":[0.648531139,0.676458001,0.905203998
			]
		},
		{
			"bufferView":2,
			"componentType":5126,
			"count":47798,
			"type":"VEC4",
			"min":[1,1,1,1
			],
			"max":[1,1,1,1
			]
		},
		{
			"bufferView":3,
			"componentType":5126,
			"count":47798,
			"type":"VEC3",
			"min":[-0.999750614,-0.999993503,-0.999994755
			],
			"max":[0.999982536,0.999904513,0.999913931
			]
		},
		{
			"bufferView":4,
			"componentType":5126,
			"count":47798,
			"type":"VEC2",
			"min":[0.00999999978,0.00999999046
			],
			"max":[0.975960791,0.99000001
			]
		},
		{
			"bufferView":5,
			"componentType":5126,
			"count":47798,
			"type":"SCALAR",
			"min":[4.3210001
			],
			"max":[4.3210001
			]
		}
	],
	"buffers":[
		{
			"uri":"pighead_data.bin",
			"byteLength":3593912,
			"name":"main_buffer"
		}
	],
	"bufferViews":[
		{
			"buffer":0,
			"byteLength":1108416,
			"target":34963
		},
		{
			"buffer":0,
			"byteOffset":1108416,
			"byteLength":573576,
			"target":34962
		},
		{
			"buffer":0,
			"byteOffset":1681992,
			"byteLength":764768,
			"target":34962
		},
		{
			"buffer":0,
			"byteOffset":2446760,
			"byteLength":573576,
			"target":34962
		},
		{
			"buffer":0,
			"byteOffset":3020336,
			"byteLength":382384,
			"target":34962
		},
		{
			"buffer":0,
			"byteOffset":3402720,
			"byteLength":191192,
			"target":34962
		}
	],
	"nodes":[
		{
			"name":"pighead",
			"mesh":0
		}
	],
	"meshes":[
		{
			"primitives":[
				{
					"attributes":{
						"_mass":5,
						"TEXCOORD_0":4,
						"NORMAL":3,
						"_RGBA":2,
						"POSITION":1
					},
					"indices":0,
					"material":0
				}
			],
			"name":"pighead"
		}
	],
	"materials":[
		{
			"name":"pighead",
			"pbrMetallicRoughness":{
				"baseColorFactor":[0.200000003,0.200000003,0.200000003,1
				],
				"metallicFactor":0,
				"roughnessFactor":0.300000012,
				"baseColorTexture":{
					"index":0
				},
				"metallicRoughnessTexture":{
					"index":1
				}
			}
		}
	],
	"scenes":[
		{
			"nodes":[0
			]
		}
	],
	"textures":[
		{
			"source":0
		},
		{
			"source":1
		}
	],
	"images":[
		{
			"uri":"testgeometry_pighead_lowres.png",
			"mimeType":"image/png"
		},
		{
			"uri":"testgeometry_pighead_lowresspec.png",
			"mimeType":"image/png"
		}
	],
	"scene":0
}
