{
	"asset":{
		"version":"2.0",
		"generator":"Houdini GLTF 2.0 Exporter"
	},
	"accessors":[
		{
			"bufferView":0,
			"componentType":5123,
			"count":1584,
			"type":"SCALAR",
			"min":[0
			],
			"max":[322
			]
		},
		{
			"bufferView":1,
			"componentType":5126,
			"count":323,
			"type":"VEC3",
			"min":[-1,-1,-1
			],
			"max":[1,1,1
			]
		},
		{
			"bufferView":2,
			"componentType":5126,
			"count":323,
			"type":"VEC4",
			"min":[1,1,1,1
			],
			"max":[1,1,1,1
			]
		},
		{
			"bufferView":3,
			"componentType":5126,
			"count":323,
			"type":"VEC3",
			"min":[-1,-1,-1
			],
			"max":[1,1,1
			]
		},
		{
			"bufferView":4,
			"componentType":5126,
			"count":323,
			"type":"VEC2",
			"min":[0,0
			],
			"max":[1,1
			]
		},
		{
			"bufferView":5,
			"componentType":5126,
			"count":323,
			"type":"SCALAR",
			"min":[4.3210001
			],
			"max":[4.3210001
			]
		}
	],
	"buffers":[
		{
			"uri":"planet_orig_data.bin",
			"byteLength":19964,
			"name":"main_buffer"
		}
	],
	"bufferViews":[
		{
			"buffer":0,
			"byteLength":3168,
			"target":34963
		},
		{
			"buffer":0,
			"byteOffset":3168,
			"byteLength":3876,
			"target":34962
		},
		{
			"buffer":0,
			"byteOffset":7044,
			"byteLength":5168,
			"target":34962
		},
		{
			"buffer":0,
			"byteOffset":12212,
			"byteLength":3876,
			"target":34962
		},
		{
			"buffer":0,
			"byteOffset":16088,
			"byteLength":2584,
			"target":34962
		},
		{
			"buffer":0,
			"byteOffset":18672,
			"byteLength":1292,
			"target":34962
		}
	],
	"nodes":[
		{
			"name":"planet_orig",
			"mesh":0
		}
	],
	"meshes":[
		{
			"primitives":[
				{
					"attributes":{
						"_mass":5,
						"TEXCOORD_0":4,
						"NORMAL":3,
						"_RGBA":2,
						"POSITION":1
					},
					"indices":0,
					"material":0
				}
			],
			"name":"pighead"
		}
	],
	"materials":[
		{
			"name":"checkerboard",
			"pbrMetallicRoughness":{
				"baseColorFactor":[0.200000003,0.200000003,0.200000003,1
				],
				"metallicFactor":0,
				"roughnessFactor":0.300000012,
				"baseColorTexture":{
					"index":0
				}
			}
		}
	],
	"scenes":[
		{
			"nodes":[0
			]
		}
	],
	"textures":[
		{
			"source":0
		}
	],
	"images":[
		{
			"uri":"checkerboard.png",
			"mimeType":"image/png"
		}
	],
	"scene":0
}
