{
	"asset":{
		"version":"2.0",
		"generator":"Houdini GLTF 2.0 Exporter"
	},
	"accessors":[
		{
			"bufferView":0,
			"componentType":5123,
			"count":144,
			"type":"SCALAR",
			"min":[0
			],
			"max":[53
			]
		},
		{
			"bufferView":1,
			"componentType":5126,
			"count":54,
			"type":"VEC3",
			"min":[0,-1,0
			],
			"max":[0,-1,0
			]
		},
		{
			"bufferView":2,
			"componentType":5126,
			"count":54,
			"type":"VEC3",
			"min":[-266,0,-230.362778
			],
			"max":[266,0,230.362778
			]
		},
		{
			"bufferView":3,
			"componentType":5126,
			"count":54,
			"type":"VEC4",
			"min":[0.395000011,0,0,1
			],
			"max":[0.395000011,0,0,1
			]
		},
		{
			"bufferView":4,
			"componentType":5126,
			"count":54,
			"type":"VEC2",
			"min":[0,0
			],
			"max":[1,1
			]
		},
		{
			"bufferView":5,
			"componentType":5126,
			"count":54,
			"type":"SCALAR",
			"min":[4.3210001
			],
			"max":[4.3210001
			]
		}
	],
	"buffers":[
		{
			"uri":"splines_circle_data.bin",
			"byteLength":3096,
			"name":"main_buffer"
		}
	],
	"bufferViews":[
		{
			"buffer":0,
			"byteLength":288,
			"target":34963
		},
		{
			"buffer":0,
			"byteOffset":288,
			"byteLength":648,
			"target":34962
		},
		{
			"buffer":0,
			"byteOffset":936,
			"byteLength":648,
			"target":34962
		},
		{
			"buffer":0,
			"byteOffset":1584,
			"byteLength":864,
			"target":34962
		},
		{
			"buffer":0,
			"byteOffset":2448,
			"byteLength":432,
			"target":34962
		},
		{
			"buffer":0,
			"byteOffset":2880,
			"byteLength":216,
			"target":34962
		}
	],
	"nodes":[
		{
			"name":"orbit1",
			"mesh":0
		}
	],
	"meshes":[
		{
			"primitives":[
				{
					"attributes":{
						"_mass":5,
						"TEXCOORD_0":4,
						"_RGBA":3,
						"POSITION":2,
						"NORMAL":1
					},
					"indices":0,
					"material":0
				}
			],
			"name":"pighead"
		}
	],
	"materials":[
		{
			"name":"uvsplines",
			"pbrMetallicRoughness":{
				"baseColorFactor":[0.200000003,0.200000003,0.200000003,1
				],
				"metallicFactor":0,
				"roughnessFactor":0.300000012
			}
		}
	],
	"scenes":[
		{
			"nodes":[0
			]
		}
	],
	"scene":0
}
