{
	"asset":{
		"version":"2.0",
		"generator":"Houdini GLTF 2.0 Exporter"
	},
	"accessors":[
		{
			"bufferView":0,
			"componentType":5121,
			"count":6,
			"type":"SCALAR",
			"min":[0
			],
			"max":[5
			]
		},
		{
			"bufferView":1,
			"componentType":5126,
			"count":6,
			"type":"VEC3",
			"min":[-1.25440001,-0.705600023,0
			],
			"max":[1.25440001,0.705600023,0
			]
		},
		{
			"bufferView":2,
			"componentType":5126,
			"count":6,
			"type":"VEC4",
			"min":[0.641600609,0.510895014,0.205040097,1
			],
			"max":[0.800463796,0.77547431,0.879505873,1
			]
		},
		{
			"bufferView":3,
			"componentType":5126,
			"count":6,
			"type":"VEC3",
			"min":[0,0,1
			],
			"max":[0,0,1
			]
		},
		{
			"bufferView":4,
			"componentType":5126,
			"count":6,
			"type":"VEC2",
			"min":[0,0
			],
			"max":[1,1
			]
		},
		{
			"bufferView":5,
			"componentType":5126,
			"count":6,
			"type":"SCALAR",
			"min":[4.3210001
			],
			"max":[4.3210001
			]
		}
	],
	"buffers":[
		{
			"uri":"splines_squareC_data.bin",
			"byteLength":320,
			"name":"main_buffer"
		}
	],
	"bufferViews":[
		{
			"buffer":0,
			"byteLength":6,
			"target":34963
		},
		{
			"buffer":0,
			"byteOffset":8,
			"byteLength":72,
			"target":34962
		},
		{
			"buffer":0,
			"byteOffset":80,
			"byteLength":96,
			"target":34962
		},
		{
			"buffer":0,
			"byteOffset":176,
			"byteLength":72,
			"target":34962
		},
		{
			"buffer":0,
			"byteOffset":248,
			"byteLength":48,
			"target":34962
		},
		{
			"buffer":0,
			"byteOffset":296,
			"byteLength":24,
			"target":34962
		}
	],
	"nodes":[
		{
			"name":"splines_square",
			"mesh":0
		}
	],
	"meshes":[
		{
			"primitives":[
				{
					"attributes":{
						"_mass":5,
						"TEXCOORD_0":4,
						"NORMAL":3,
						"_RGBA":2,
						"POSITION":1
					},
					"indices":0,
					"material":0
				}
			],
			"name":"pighead"
		}
	],
	"materials":[
		{
			"name":"lineSDF",
			"pbrMetallicRoughness":{
				"baseColorFactor":[0.200000003,0.200000003,0.200000003,1
				],
				"metallicFactor":0,
				"roughnessFactor":0.300000012
			}
		}
	],
	"scenes":[
		{
			"nodes":[0
			]
		}
	],
	"scene":0
}
