{
	"asset":{
		"version":"2.0",
		"generator":"Houdini GLTF 2.0 Exporter"
	},
	"accessors":[
		{
			"bufferView":0,
			"componentType":5123,
			"count":14202,
			"type":"SCALAR",
			"min":[0
			],
			"max":[2415
			]
		},
		{
			"bufferView":1,
			"componentType":5126,
			"count":2416,
			"type":"VEC3",
			"min":[-1.11487119e+10,-1.23874519e+10,-9.85374106e+09
			],
			"max":[1.19016049e+10,1.31505254e+10,1.17618166e+10
			]
		},
		{
			"bufferView":2,
			"componentType":5126,
			"count":2416,
			"type":"VEC4",
			"min":[1,1,1,1
			],
			"max":[1,1,1,1
			]
		},
		{
			"bufferView":3,
			"componentType":5126,
			"count":2416,
			"type":"VEC3",
			"min":[-0.999180734,-0.99955982,-0.999975085
			],
			"max":[0.998035014,0.997454107,0.999757349
			]
		},
		{
			"bufferView":4,
			"componentType":5126,
			"count":2416,
			"type":"VEC2",
			"min":[3.09348106e-05,0.00981682539
			],
			"max":[1.2284236,0.988792121
			]
		},
		{
			"bufferView":5,
			"componentType":5126,
			"count":2416,
			"type":"SCALAR",
			"min":[4.3210001
			],
			"max":[4.3210001
			]
		}
	],
	"buffers":[
		{
			"uri":"stars_data.bin",
			"byteLength":154036,
			"name":"main_buffer"
		}
	],
	"bufferViews":[
		{
			"buffer":0,
			"byteLength":28404,
			"target":34963
		},
		{
			"buffer":0,
			"byteOffset":28404,
			"byteLength":28992,
			"target":34962
		},
		{
			"buffer":0,
			"byteOffset":57396,
			"byteLength":38656,
			"target":34962
		},
		{
			"buffer":0,
			"byteOffset":96052,
			"byteLength":28992,
			"target":34962
		},
		{
			"buffer":0,
			"byteOffset":125044,
			"byteLength":19328,
			"target":34962
		},
		{
			"buffer":0,
			"byteOffset":144372,
			"byteLength":9664,
			"target":34962
		}
	],
	"nodes":[
		{
			"name":"stars",
			"mesh":0
		}
	],
	"meshes":[
		{
			"primitives":[
				{
					"attributes":{
						"_mass":5,
						"TEXCOORD_0":4,
						"NORMAL":3,
						"_RGBA":2,
						"POSITION":1
					},
					"indices":0,
					"material":0
				}
			],
			"name":"pighead"
		}
	],
	"materials":[
		{
			"name":"checkerboard",
			"pbrMetallicRoughness":{
				"baseColorFactor":[0.200000003,0.200000003,0.200000003,1
				],
				"metallicFactor":0,
				"roughnessFactor":0.300000012,
				"baseColorTexture":{
					"index":0
				}
			}
		}
	],
	"scenes":[
		{
			"nodes":[0
			]
		}
	],
	"textures":[
		{
			"source":0
		}
	],
	"images":[
		{
			"uri":"checkerboard.png",
			"mimeType":"image/png"
		}
	],
	"scene":0
}
