{
	"asset":{
		"version":"2.0",
		"generator":"Houdini GLTF 2.0 Exporter"
	},
	"accessors":[
		{
			"bufferView":0,
			"componentType":5123,
			"count":2940,
			"type":"SCALAR",
			"min":[0
			],
			"max":[512
			]
		},
		{
			"bufferView":1,
			"componentType":5126,
			"count":513,
			"type":"VEC3",
			"min":[-498437312,-497846976,-500000000
			],
			"max":[498437312,497846976,500000000
			]
		},
		{
			"bufferView":2,
			"componentType":5126,
			"count":513,
			"type":"VEC4",
			"min":[1,1,1,1
			],
			"max":[1,1,1,1
			]
		},
		{
			"bufferView":3,
			"componentType":5126,
			"count":513,
			"type":"VEC3",
			"min":[-0.996811271,-0.995803952,-1
			],
			"max":[0.996811271,0.995803952,1
			]
		},
		{
			"bufferView":4,
			"componentType":5126,
			"count":513,
			"type":"VEC2",
			"min":[0,0.0295504928
			],
			"max":[1.16595721,0.970449507
			]
		},
		{
			"bufferView":5,
			"componentType":5126,
			"count":513,
			"type":"SCALAR",
			"min":[4.3210001
			],
			"max":[4.3210001
			]
		}
	],
	"buffers":[
		{
			"uri":"star_data.bin",
			"byteLength":32556,
			"name":"main_buffer"
		}
	],
	"bufferViews":[
		{
			"buffer":0,
			"byteLength":5880,
			"target":34963
		},
		{
			"buffer":0,
			"byteOffset":5880,
			"byteLength":6156,
			"target":34962
		},
		{
			"buffer":0,
			"byteOffset":12036,
			"byteLength":8208,
			"target":34962
		},
		{
			"buffer":0,
			"byteOffset":20244,
			"byteLength":6156,
			"target":34962
		},
		{
			"buffer":0,
			"byteOffset":26400,
			"byteLength":4104,
			"target":34962
		},
		{
			"buffer":0,
			"byteOffset":30504,
			"byteLength":2052,
			"target":34962
		}
	],
	"nodes":[
		{
			"name":"star",
			"mesh":0
		}
	],
	"meshes":[
		{
			"primitives":[
				{
					"attributes":{
						"_mass":5,
						"TEXCOORD_0":4,
						"NORMAL":3,
						"_RGBA":2,
						"POSITION":1
					},
					"indices":0,
					"material":0
				}
			],
			"name":"pighead"
		}
	],
	"materials":[
		{
			"name":"constant",
			"pbrMetallicRoughness":{
				"baseColorFactor":[0.200000003,0.200000003,0.200000003,1
				],
				"metallicFactor":0,
				"roughnessFactor":0.300000012
			}
		}
	],
	"scenes":[
		{
			"nodes":[0
			]
		}
	],
	"scene":0
}
