{
	"asset":{
		"version":"2.0",
		"generator":"Houdini GLTF 2.0 Exporter"
	},
	"accessors":[
		{
			"bufferView":0,
			"componentType":5123,
			"count":8940,
			"type":"SCALAR",
			"min":[0
			],
			"max":[1526
			]
		},
		{
			"bufferView":1,
			"componentType":5126,
			"count":1527,
			"type":"VEC3",
			"min":[-26.894804,-24.8639584,-24.1019173
			],
			"max":[33.4557343,33.1511955,31.3650703
			]
		},
		{
			"bufferView":2,
			"componentType":5126,
			"count":1527,
			"type":"VEC4",
			"min":[1,1,1,1
			],
			"max":[1,1,1,1
			]
		},
		{
			"bufferView":3,
			"componentType":5126,
			"count":1527,
			"type":"VEC3",
			"min":[-0.997512341,-0.998695433,-0.99851656
			],
			"max":[0.999737203,0.999732435,0.998646677
			]
		},
		{
			"bufferView":4,
			"componentType":5126,
			"count":1527,
			"type":"VEC2",
			"min":[2.86996365e-05,0.010289669
			],
			"max":[1.18607068,0.992188275
			]
		},
		{
			"bufferView":5,
			"componentType":5126,
			"count":1527,
			"type":"SCALAR",
			"min":[4.3210001
			],
			"max":[4.3210001
			]
		}
	],
	"buffers":[
		{
			"uri":"stars_data.bin",
			"byteLength":97284,
			"name":"main_buffer"
		}
	],
	"bufferViews":[
		{
			"buffer":0,
			"byteLength":17880,
			"target":34963
		},
		{
			"buffer":0,
			"byteOffset":17880,
			"byteLength":18324,
			"target":34962
		},
		{
			"buffer":0,
			"byteOffset":36204,
			"byteLength":24432,
			"target":34962
		},
		{
			"buffer":0,
			"byteOffset":60636,
			"byteLength":18324,
			"target":34962
		},
		{
			"buffer":0,
			"byteOffset":78960,
			"byteLength":12216,
			"target":34962
		},
		{
			"buffer":0,
			"byteOffset":91176,
			"byteLength":6108,
			"target":34962
		}
	],
	"nodes":[
		{
			"name":"stars",
			"mesh":0
		}
	],
	"meshes":[
		{
			"primitives":[
				{
					"attributes":{
						"_mass":5,
						"TEXCOORD_0":4,
						"NORMAL":3,
						"_RGBA":2,
						"POSITION":1
					},
					"indices":0,
					"material":0
				}
			],
			"name":"pighead"
		}
	],
	"materials":[
		{
			"name":"checkerboard",
			"pbrMetallicRoughness":{
				"baseColorFactor":[0.200000003,0.200000003,0.200000003,1
				],
				"metallicFactor":0,
				"roughnessFactor":0.300000012,
				"baseColorTexture":{
					"index":0
				}
			}
		}
	],
	"scenes":[
		{
			"nodes":[0
			]
		}
	],
	"textures":[
		{
			"source":0
		}
	],
	"images":[
		{
			"uri":"checkerboard.png",
			"mimeType":"image/png"
		}
	],
	"scene":0
}
